<svg width="393" height="87" viewBox="0 0 393 87" fill="none" xmlns="http://www.w3.org/2000/svg">
<path d="M173.845 6.92217C153.256 1.25493 50.3087 -4.97903 3.85008 13.7229C-2.95468 27.7713 3.73534 38.9252 10.5399 50.2701L10.7136 50.5597C-6.18024 82.7523 26.5516 82.7523 26.5516 82.7523C26.5516 82.7523 86.6437 82.3744 111.633 82.7523C132.75 73.2313 190.211 93.0638 224.611 82.7523C232.635 92.7266 331.781 78.5963 380.351 70.2844C380.351 59.6272 391.262 52.905 389.854 39.1148C398.723 34.1276 378.063 22.6798 366.625 17.5793C374.649 2.61787 246.7 2.38837 173.845 6.92217Z" fill="#FFFBD8" fill-opacity="0.7" stroke="#FFFBD8"/>
</svg>
