<svg width="28" height="43" viewBox="0 0 28 43" fill="none" xmlns="http://www.w3.org/2000/svg">
<path d="M8.1582 8.81689H5.32575C4.775 8.81689 3.46106 9.02742 2.61133 9.86952C1.7616 10.7116 1.86388 12.1697 2.02124 12.7935V29.7526C1.94256 31.9358 1.83241 36.5596 2.02124 37.5888C2.21007 38.6181 4.30293 39.0313 5.32575 39.1093H20.078C21.3369 39.1873 24.0907 39.1327 25.0348 38.2906C25.979 37.4485 25.979 34.8208 25.861 33.6122V18.2906C25.861 15.8344 25.6957 10.7116 25.0348 9.86952C24.3739 9.02742 23.5006 8.81689 23.1465 8.81689L18.5438 8.34906V4.60637C18.4258 4.06056 18.0953 2.82859 17.7177 2.26718C17.34 1.70578 16.3801 1.56543 15.9474 1.56543H11.8168C11.384 1.76036 10.4005 2.17362 9.92847 2.26718C9.4564 2.36075 9.33838 3.31982 9.33838 3.78765V8.34906L8.1582 8.81689ZM8.1582 8.81689L19.3691 8.43294M6.2699 12.7935V33.6122M9.92847 12.7935V33.6122M14.0591 12.7935V33.6122M17.7177 12.7935V33.6122M21.8483 12.7935V33.6122M5.79783 40.2789C5.79783 40.7077 6.10468 41.5654 7.33207 41.5654C8.55946 41.5654 8.78763 40.7077 8.74829 40.2789H5.79783ZM18.8979 40.2789C19.0946 40.7077 19.724 41.5654 20.6681 41.5654C21.6123 41.5654 22.0057 40.7857 22.0844 40.3958L18.8979 40.2789Z" stroke="black" stroke-opacity="0.4" stroke-width="2.25"/>
</svg>
